<?xml version="1.0" encoding="UTF-8"?>
<svg xmlns="http://www.w3.org/2000/svg" 
     viewBox="-2.8 -83.00000000000001 58.519999999999996 93.58400000000002" 
     width="200" height="200">
  <path d="M 8.28 -23.944000000000003 Q 7.92 -21.80266666666667 7.74 -20.44 Q 7.5600000000000005 -19.077333333333335 7.38 -17.71466666666667 Q 7.2 -16.352000000000004 7.2 -14.016000000000002 Q 7.2 -10.512 7.74 -7.9813333333333345 Q 8.28 -5.450666666666668 9.540000000000001 -3.7960000000000003 Q 10.8 -2.1413333333333338 12.96 -1.1680000000000001 Q 15.120000000000001 -0.19466666666666668 18.36 0.19466666666666668 Q 21.6 0.5840000000000001 25.92 0.5840000000000001 Q 31.32 0.5840000000000001 35.1 -0.48666666666666675 Q 38.88 -1.5573333333333335 41.22 -4.185333333333333 Q 43.56 -6.8133333333333335 44.64 -11.534 Q 45.72 -16.25466666666667 45.72 -23.457333333333334 Q 45.72 -31.244000000000003 44.82 -35.867333333333335 Q 43.92 -40.49066666666667 41.94 -42.778000000000006 Q 39.96 -45.065333333333335 36.9 -45.79533333333334 Q 33.84 -46.525333333333336 29.52 -46.525333333333336 Q 25.92 -46.525333333333336 23.04 -45.84400000000001 Q 20.16 -45.162666666666674 18 -43.84866666666667 Q 15.84 -42.53466666666667 14.4 -40.78266666666667 L 15.120000000000001 -40.68533333333334 Q 15.120000000000001 -43.800000000000004 14.94 -47.06066666666668 Q 14.76 -50.32133333333334 14.76 -53.82533333333334 Q 14.76 -56.45333333333334 14.76 -59.37333333333334 Q 14.76 -62.293333333333344 14.76 -65.01866666666668 Q 14.76 -67.744 14.94 -69.69066666666667 Q 15.120000000000001 -71.63733333333333 15.120000000000001 -72.22133333333335 L 10.08 -71.05333333333334 Q 12.96 -71.05333333333334 16.02 -71.05333333333334 Q 19.080000000000002 -71.05333333333334 21.96 -71.05333333333334 Q 24.84 -71.05333333333334 27.18 -71.05333333333334 Q 29.52 -71.05333333333334 30.96 -71.05333333333334 Q 31.68 -71.05333333333334 33.3 -71.05333333333334 Q 34.92 -71.05333333333334 36.54 -71.05333333333334 Q 38.160000000000004 -71.05333333333334 39.96 -71.05333333333334 Q 41.76 -71.05333333333334 43.38 -71.00466666666668 Q 45 -70.956 45.72 -70.956 Q 45.72 -71.05333333333334 45.72 -71.44266666666668 Q 45.72 -71.83200000000001 45.72 -72.02666666666667 Q 45.72 -72.31866666666667 45.72 -72.61066666666667 Q 45.72 -72.90266666666668 45.72 -73.00000000000001 Q 43.56 -73.00000000000001 41.58 -73.00000000000001 Q 39.6 -73.00000000000001 37.62 -73.00000000000001 Q 35.64 -73.00000000000001 33.480000000000004 -73.00000000000001 Q 31.32 -73.00000000000001 28.8 -73.00000000000001 Q 26.28 -73.00000000000001 23.76 -73.00000000000001 Q 21.240000000000002 -73.00000000000001 18.72 -73.00000000000001 Q 16.2 -73.00000000000001 13.5 -73.00000000000001 Q 10.8 -73.00000000000001 7.92 -73.00000000000001 Q 8.28 -72.02666666666667 8.28 -68.66866666666667 Q 8.28 -65.31066666666668 8.28 -60.882000000000005 Q 8.28 -56.45333333333334 8.28 -52.46266666666668 Q 8.28 -49.73733333333334 8.28 -46.96333333333334 Q 8.28 -44.18933333333334 8.46 -41.56133333333333 Q 8.64 -38.93333333333334 8.28 -36.69466666666667 Q 8.64 -36.69466666666667 9.36 -36.69466666666667 Q 10.08 -36.69466666666667 10.620000000000001 -36.64600000000001 Q 11.16 -36.59733333333334 11.700000000000001 -36.59733333333334 Q 12.24 -36.59733333333334 12.780000000000001 -36.54866666666667 Q 13.32 -36.50000000000001 13.86 -36.45133333333334 Q 14.4 -36.40266666666667 15.120000000000001 -36.40266666666667 Q 16.2 -39.32266666666667 18.18 -41.17200000000001 Q 20.16 -43.021333333333345 22.86 -43.897333333333336 Q 25.560000000000002 -44.77333333333334 28.8 -44.77333333333334 Q 32.04 -44.77333333333334 34.2 -43.16733333333334 Q 36.36 -41.561333333333344 37.44 -36.93800000000001 Q 38.52 -32.314666666666675 38.52 -23.36 Q 38.52 -14.600000000000003 37.26 -9.782000000000002 Q 36 -4.964 33.3 -3.0660000000000003 Q 30.6 -1.1680000000000001 25.92 -1.1680000000000001 Q 22.68 -1.1680000000000001 20.52 -1.7033333333333334 Q 18.36 -2.2386666666666666 16.92 -3.6013333333333333 Q 15.48 -4.964 14.94 -7.5920000000000005 Q 14.4 -10.22 14.4 -14.405333333333335 Q 14.4 -15.962666666666669 14.58 -18.639333333333337 Q 14.76 -21.316000000000003 15.120000000000001 -23.944000000000003 Q 14.4 -23.944000000000003 13.86 -23.944000000000003 Q 13.32 -23.944000000000003 11.88 -23.944000000000003 Q 11.16 -23.944000000000003 10.08 -23.944000000000003 Q 9 -23.944000000000003 8.28 -23.944000000000003 Z" fill="black" stroke="none"/>
</svg>