<?xml version="1.0" encoding="UTF-8"?>
<svg xmlns="http://www.w3.org/2000/svg" 
     viewBox="-1 -83.00000000000001 63.92 93.00000000000001" 
     width="200" height="200">
  <path d="M 16.56 0 Q 16.56 -3.114666666666667 16.38 -7.0566666666666675 Q 16.2 -10.998666666666669 16.2 -15.232666666666669 Q 16.2 -19.46666666666667 16.2 -23.506000000000004 Q 16.2 -27.54533333333334 16.2 -30.854666666666674 Q 16.2 -34.16400000000001 16.2 -36.30533333333334 L 12.96 -35.72133333333334 Q 17.28 -35.818666666666665 21.6 -35.818666666666665 Q 25.92 -35.818666666666665 30.96 -35.818666666666665 Q 36 -35.818666666666665 40.32 -35.818666666666665 Q 44.64 -35.818666666666665 48.96 -35.72133333333334 L 45.72 -36.30533333333334 Q 45.72 -34.16400000000001 45.72 -30.854666666666674 Q 45.72 -27.54533333333334 45.72 -23.506000000000004 Q 45.72 -19.46666666666667 45.72 -15.232666666666669 Q 45.72 -10.998666666666669 45.54 -7.0566666666666675 Q 45.36 -3.114666666666667 45.36 0 L 52.92 0 Q 52.56 -5.256 52.38 -10.706666666666667 Q 52.2 -16.157333333333337 52.38 -22.43533333333334 Q 52.56 -28.713333333333335 52.56 -36.50000000000001 Q 52.56 -48.082666666666675 52.38 -57.71866666666667 Q 52.2 -67.35466666666667 52.92 -73.00000000000001 L 45.36 -73.00000000000001 Q 45.36 -70.85866666666668 45.54 -67.20866666666667 Q 45.72 -63.55866666666668 45.72 -59.17866666666667 Q 45.72 -54.79866666666667 45.72 -50.467333333333336 Q 45.72 -46.136 45.72 -42.486000000000004 Q 45.72 -38.836000000000006 45.72 -36.69466666666667 L 48.96 -37.570666666666675 Q 44.28 -37.473333333333336 40.14 -37.473333333333336 Q 36 -37.473333333333336 30.96 -37.473333333333336 Q 25.92 -37.473333333333336 21.78 -37.473333333333336 Q 17.64 -37.473333333333336 12.96 -37.570666666666675 L 16.2 -36.69466666666667 Q 16.2 -38.836000000000006 16.2 -42.486000000000004 Q 16.2 -46.136 16.2 -50.467333333333336 Q 16.2 -54.79866666666667 16.2 -59.17866666666667 Q 16.2 -63.55866666666668 16.38 -67.20866666666667 Q 16.56 -70.85866666666668 16.56 -73.00000000000001 L 9 -73.00000000000001 Q 9.72 -67.35466666666667 9.540000000000001 -57.71866666666667 Q 9.36 -48.082666666666675 9.36 -36.50000000000001 Q 9.36 -28.713333333333335 9.540000000000001 -22.43533333333334 Q 9.72 -16.157333333333337 9.540000000000001 -10.706666666666667 Q 9.36 -5.256 9 0 Z" fill="black" stroke="none"/>
</svg>