<?xml version="1.0" encoding="UTF-8"?>
<svg xmlns="http://www.w3.org/2000/svg" 
     viewBox="-1 -71.41733333333335 52.4 81.41733333333335" 
     width="200" height="200">
  <path d="M 16.92 0 Q 16.56 -3.309333333333334 16.38 -8.516666666666667 Q 16.2 -13.724000000000002 16.2 -19.856 Q 16.2 -25.988000000000003 16.2 -32.16866666666667 Q 16.2 -38.34933333333334 16.2 -43.60533333333334 Q 16.2 -47.69333333333334 17.28 -50.613333333333344 Q 18.36 -53.53333333333334 20.34 -55.38266666666667 Q 22.32 -57.232000000000006 25.38 -58.15666666666668 Q 28.44 -59.08133333333334 32.76 -59.08133333333334 Q 34.56 -59.08133333333334 36 -58.98400000000001 Q 37.44 -58.88666666666667 39.24 -58.69200000000001 Q 39.24 -58.98400000000001 39.6 -59.276 Q 39.96 -59.568000000000005 40.14 -59.90866666666667 Q 40.32 -60.24933333333335 40.68 -60.59000000000001 Q 41.04 -60.930666666666674 41.4 -61.12533333333334 Q 39.24 -61.32000000000001 37.62 -61.36866666666667 Q 36 -61.41733333333334 34.56 -61.41733333333334 Q 29.52 -61.41733333333334 25.740000000000002 -60.736000000000004 Q 21.96 -60.05466666666667 19.44 -58.4 Q 16.92 -56.74533333333334 15.48 -53.77666666666667 Q 14.040000000000001 -50.808 14.040000000000001 -46.136 L 16.56 -52.36533333333334 L 11.52 -52.36533333333334 L 12.24 -46.03866666666667 Q 12.24 -49.44533333333334 12.96 -52.56 Q 13.68 -55.674666666666674 14.4 -57.96200000000001 Q 15.120000000000001 -60.24933333333335 15.48 -61.12533333333334 L 9 -61.12533333333334 Q 9.36 -55.09066666666668 9.36 -48.42333333333334 Q 9.36 -41.75600000000001 9.36 -32.60666666666667 Q 9.36 -22.192000000000004 9.36 -14.405333333333335 Q 9.36 -6.618666666666668 9 0 Z" fill="black" stroke="none"/>
</svg>