<?xml version="1.0" encoding="UTF-8"?>
<svg xmlns="http://www.w3.org/2000/svg" 
     viewBox="-1229.8388061523438 NaN 1269.3854724121093 NaN" 
     width="200" height="200">
  <path d="M 24.96 8.48 C 22.506666259765627 472.6931262207031 29.546666259765626 476.9331262207031 -325.4395849609375 469.65312622070314 L -321.4395849609375 469.65312622070314 L -321.4395849609375 466.0531262207031 L -492.1059289550781 466.0531262207031 L -492.1059289550781 807.3865539550782 L -484.1059289550781 807.3865539550782 C -484.1059289550781 804.6132202148438 -481.6925964355469 802.5598864746094 -479.6392626953125 802.5598864746094 L -479.39926269531253 802.5598864746094 L -478.4925964355469 1116.5861376953126 L -478.4925964355469 1114.1061376953126 L -479.79926391601566 1114.1061376953126 L -479.79926391601566 1115.4928039550782 L -480.75926391601564 1115.4928039550782 L -480.75926391601564 1170.1059301757812 L -472.3592639160156 1170.1059301757812 L -472.3592639160156 1167.5459301757812 L -581.5855151367188 1167.5459301757812 L -581.5855151367188 1159.0659301757812 L -585.9055151367188 1159.0659301757812 L -585.9055151367188 1176.1059301757812 L -590.4655151367188 1176.1059301757812 L -590.4655151367188 1177.2259301757813 L -591.7855151367188 1177.2259301757813 L -591.7855151367188 1798.4523461914064 L -1219.8388061523438 1798.4523461914064 L -1219.8388061523438 2426.5054724121096 L -1211.8388061523438 2426.5054724121096 L -1211.8388061523438 2423.945472412109 L -1213.0121398925783 2423.945472412109 L -1213.0121398925783 2778.9320251464846 L -1202.7721398925783 2778.9320251464846 L -1200.2921398925782 2777.15869140625 L -1197.9454736328125 2774.83869140625 L -1181.2254736328125 NaN Z M -1196.0254736328125 NaN Z" fill="black" stroke="none"/>
</svg>