<?xml version="1.0" encoding="UTF-8"?>
<svg xmlns="http://www.w3.org/2000/svg" 
     viewBox="-7.2 6.4799999999999995 403.4159999999998 66.24" 
     width="389.01599999999985" height="51.839999999999996">
  <path d="M 13.248 65.52 Q 7.4879999999999995 65.52 4.536 62.244 Q 1.5839999999999999 58.967999999999996 1.5839999999999999 52.848 L 1.5839999999999999 49.967999999999996 L 9.072 49.967999999999996 L 9.072 53.424 Q 9.072 58.32 13.175999999999998 58.32 Q 15.191999999999998 58.32 16.235999999999997 57.132 Q 17.279999999999998 55.943999999999996 17.279999999999998 53.28 Q 17.279999999999998 50.111999999999995 15.839999999999998 47.7 Q 14.399999999999999 45.288 10.511999999999999 41.903999999999996 Q 5.616 37.584 3.6719999999999997 34.092 Q 1.7279999999999998 30.6 1.7279999999999998 26.208 Q 1.7279999999999998 20.232 4.752 16.956000000000003 Q 7.776 13.68 13.536 13.68 Q 19.224 13.68 22.139999999999997 16.956000000000003 Q 25.055999999999997 20.232 25.055999999999997 26.351999999999997 L 25.055999999999997 28.439999999999998 L 17.567999999999998 28.439999999999998 L 17.567999999999998 25.848 Q 17.567999999999998 23.256 16.56 22.067999999999998 Q 15.552 20.880000000000003 13.607999999999999 20.880000000000003 Q 9.648 20.880000000000003 9.648 25.704 Q 9.648 28.439999999999998 11.123999999999999 30.816000000000003 Q 12.6 33.192 16.488 36.576 Q 21.456 40.896 23.328 44.424 Q 25.2 47.952 25.2 52.704 Q 25.2 58.896 22.139999999999997 62.208 Q 19.08 65.52 13.248 65.52 Z"/>
<path d="M 29.735999999999997 14.399999999999999 L 37.656 14.399999999999999 L 37.656 64.8 L 29.735999999999997 64.8 Z"/>
<path d="M 54.791999999999994 65.52 Q 49.032 65.52 46.007999999999996 62.244 Q 42.983999999999995 58.967999999999996 42.983999999999995 52.848 L 42.983999999999995 26.351999999999997 Q 42.983999999999995 20.232 46.007999999999996 16.956000000000003 Q 49.032 13.68 54.791999999999994 13.68 Q 60.55199999999999 13.68 63.57599999999999 16.956000000000003 Q 66.6 20.232 66.6 26.351999999999997 L 66.6 30.671999999999997 L 59.111999999999995 30.671999999999997 L 59.111999999999995 25.848 Q 59.111999999999995 20.880000000000003 55.007999999999996 20.880000000000003 Q 50.903999999999996 20.880000000000003 50.903999999999996 25.848 L 50.903999999999996 53.424 Q 50.903999999999996 58.32 55.007999999999996 58.32 Q 59.111999999999995 58.32 59.111999999999995 53.424 L 59.111999999999995 43.56 L 55.151999999999994 43.56 L 55.151999999999994 36.36 L 66.6 36.36 L 66.6 52.848 Q 66.6 58.967999999999996 63.57599999999999 62.244 Q 60.55199999999999 65.52 54.791999999999994 65.52 Z"/>
<path d="M 71.71199999999999 14.399999999999999 L 83.01599999999999 14.399999999999999 L 88.05599999999998 50.471999999999994 L 88.19999999999999 50.471999999999994 L 93.23999999999998 14.399999999999999 L 104.54399999999998 14.399999999999999 L 104.54399999999998 64.8 L 97.05599999999998 64.8 L 97.05599999999998 26.64 L 96.91199999999999 26.64 L 91.15199999999999 64.8 L 84.52799999999999 64.8 L 78.76799999999999 26.64 L 78.624 26.64 L 78.624 64.8 L 71.71199999999999 64.8 Z"/>
<path d="M 116.56799999999998 14.399999999999999 L 127.29599999999998 14.399999999999999 L 135.504 64.8 L 127.58399999999997 64.8 L 126.14399999999998 54.792 L 126.14399999999998 54.936 L 117.14399999999998 54.936 L 115.70399999999998 64.8 L 108.35999999999999 64.8 Z M 125.20799999999998 48.096000000000004 L 121.67999999999998 23.183999999999997 L 121.53599999999997 23.183999999999997 L 118.07999999999998 48.096000000000004 Z"/>
<path d="M 149.61599999999996 65.52 Q 143.85599999999997 65.52 140.90399999999997 62.244 Q 137.95199999999997 58.967999999999996 137.95199999999997 52.848 L 137.95199999999997 49.967999999999996 L 145.43999999999997 49.967999999999996 L 145.43999999999997 53.424 Q 145.43999999999997 58.32 149.54399999999995 58.32 Q 151.55999999999997 58.32 152.60399999999996 57.132 Q 153.64799999999997 55.943999999999996 153.64799999999997 53.28 Q 153.64799999999997 50.111999999999995 152.20799999999997 47.7 Q 150.76799999999997 45.288 146.87999999999997 41.903999999999996 Q 141.98399999999998 37.584 140.03999999999996 34.092 Q 138.09599999999998 30.6 138.09599999999998 26.208 Q 138.09599999999998 20.232 141.11999999999998 16.956000000000003 Q 144.14399999999998 13.68 149.90399999999997 13.68 Q 155.59199999999996 13.68 158.50799999999995 16.956000000000003 Q 161.42399999999998 20.232 161.42399999999998 26.351999999999997 L 161.42399999999998 28.439999999999998 L 153.93599999999998 28.439999999999998 L 153.93599999999998 25.848 Q 153.93599999999998 23.256 152.92799999999997 22.067999999999998 Q 151.91999999999996 20.880000000000003 149.97599999999997 20.880000000000003 Q 146.01599999999996 20.880000000000003 146.01599999999996 25.704 Q 146.01599999999996 28.439999999999998 147.49199999999996 30.816000000000003 Q 148.96799999999996 33.192 152.85599999999997 36.576 Q 157.82399999999996 40.896 159.69599999999997 44.424 Q 161.56799999999996 47.952 161.56799999999996 52.704 Q 161.56799999999996 58.896 158.50799999999995 62.208 Q 155.44799999999998 65.52 149.61599999999996 65.52 Z"/>
<path d="M 166.10399999999996 14.399999999999999 L 187.70399999999995 14.399999999999999 L 187.70399999999995 21.6 L 174.02399999999994 21.6 L 174.02399999999994 34.92 L 184.89599999999996 34.92 L 184.89599999999996 42.12 L 174.02399999999994 42.12 L 174.02399999999994 57.599999999999994 L 187.70399999999995 57.599999999999994 L 187.70399999999995 64.8 L 166.10399999999996 64.8 Z"/>
<path d="M 192.23999999999995 14.399999999999999 L 203.97599999999994 14.399999999999999 Q 210.09599999999995 14.399999999999999 212.90399999999994 17.244 Q 215.71199999999996 20.088 215.71199999999996 25.991999999999997 L 215.71199999999996 29.088 Q 215.71199999999996 36.936 210.52799999999996 39.024 L 210.52799999999996 39.168 Q 213.40799999999996 40.032 214.59599999999995 42.696 Q 215.78399999999996 45.36 215.78399999999996 49.824 L 215.78399999999996 58.68 Q 215.78399999999996 60.839999999999996 215.92799999999994 62.172 Q 216.07199999999995 63.504 216.64799999999997 64.8 L 208.58399999999995 64.8 Q 208.15199999999996 63.576 208.00799999999995 62.495999999999995 Q 207.86399999999995 61.416 207.86399999999995 58.608 L 207.86399999999995 49.391999999999996 Q 207.86399999999995 45.936 206.74799999999996 44.568 Q 205.63199999999995 43.2 202.89599999999996 43.2 L 200.15999999999997 43.2 L 200.15999999999997 64.8 L 192.23999999999995 64.8 Z M 203.03999999999996 36 Q 205.41599999999994 36 206.60399999999996 34.775999999999996 Q 207.79199999999994 33.552 207.79199999999994 30.671999999999997 L 207.79199999999994 26.784 Q 207.79199999999994 24.048000000000002 206.81999999999996 22.823999999999998 Q 205.84799999999996 21.6 203.75999999999996 21.6 L 200.15999999999997 21.6 L 200.15999999999997 36 Z"/>
<path d="M 221.25599999999994 14.399999999999999 L 229.17599999999993 14.399999999999999 L 229.17599999999993 64.8 L 221.25599999999994 64.8 Z"/>
<path d="M 235.07999999999993 14.399999999999999 L 256.0319999999999 14.399999999999999 L 256.0319999999999 21.6 L 242.99999999999994 21.6 L 242.99999999999994 35.64 L 253.22399999999993 35.64 L 253.22399999999993 42.84 L 242.99999999999994 42.84 L 242.99999999999994 64.8 L 235.07999999999993 64.8 Z"/>
<path d="M 281.4479999999999 14.399999999999999 L 302.3999999999999 14.399999999999999 L 302.3999999999999 21.6 L 289.36799999999994 21.6 L 289.36799999999994 35.64 L 299.5919999999999 35.64 L 299.5919999999999 42.84 L 289.36799999999994 42.84 L 289.36799999999994 64.8 L 281.4479999999999 64.8 Z"/>
<path d="M 317.6639999999999 65.52 Q 311.8319999999999 65.52 308.7359999999999 62.208 Q 305.6399999999999 58.896 305.6399999999999 52.848 L 305.6399999999999 26.351999999999997 Q 305.6399999999999 20.304000000000002 308.7359999999999 16.991999999999997 Q 311.8319999999999 13.68 317.6639999999999 13.68 Q 323.49599999999987 13.68 326.59199999999987 16.991999999999997 Q 329.6879999999999 20.304000000000002 329.6879999999999 26.351999999999997 L 329.6879999999999 52.848 Q 329.6879999999999 58.896 326.59199999999987 62.208 Q 323.49599999999987 65.52 317.6639999999999 65.52 Z M 317.6639999999999 58.32 Q 321.7679999999999 58.32 321.7679999999999 53.352 L 321.7679999999999 25.848 Q 321.7679999999999 20.880000000000003 317.6639999999999 20.880000000000003 Q 313.5599999999999 20.880000000000003 313.5599999999999 25.848 L 313.5599999999999 53.352 Q 313.5599999999999 58.32 317.6639999999999 58.32 Z"/>
<path d="M 335.0159999999999 14.399999999999999 L 344.9519999999999 14.399999999999999 L 352.6559999999999 44.568 L 352.7999999999999 44.568 L 352.7999999999999 14.399999999999999 L 359.8559999999999 14.399999999999999 L 359.8559999999999 64.8 L 351.7199999999999 64.8 L 342.2159999999999 28.008000000000003 L 342.0719999999999 28.008000000000003 L 342.0719999999999 64.8 L 335.0159999999999 64.8 Z"/>
<path d="M 371.9519999999999 21.6 L 363.67199999999985 21.6 L 363.67199999999985 14.399999999999999 L 388.1519999999999 14.399999999999999 L 388.1519999999999 21.6 L 379.8719999999999 21.6 L 379.8719999999999 64.8 L 371.9519999999999 64.8 Z"/>
</svg>