<?xml version="1.0" encoding="UTF-8"?>
<svg xmlns="http://www.w3.org/2000/svg" 
     viewBox="-14.4 12.959999999999999 298.224 132.48" 
     width="269.424" height="103.67999999999999">
  <path d="M 5.904 28.799999999999997 L 21.744 28.799999999999997 L 21.744 69.84 L 38.736 69.84 L 38.736 28.799999999999997 L 54.57599999999999 28.799999999999997 L 54.57599999999999 129.6 L 38.736 129.6 L 38.736 84.24 L 21.744 84.24 L 21.744 129.6 L 5.904 129.6 Z"/>
<path d="M 66.384 28.799999999999997 L 109.584 28.799999999999997 L 109.584 43.2 L 82.22399999999999 43.2 L 82.22399999999999 69.84 L 103.96799999999999 69.84 L 103.96799999999999 84.24 L 82.22399999999999 84.24 L 82.22399999999999 115.19999999999999 L 109.584 115.19999999999999 L 109.584 129.6 L 66.384 129.6 Z"/>
<path d="M 118.65599999999999 28.799999999999997 L 134.49599999999998 28.799999999999997 L 134.49599999999998 115.19999999999999 L 160.56 115.19999999999999 L 160.56 129.6 L 118.65599999999999 129.6 Z"/>
<path d="M 168.19199999999998 28.799999999999997 L 184.03199999999998 28.799999999999997 L 184.03199999999998 115.19999999999999 L 210.09599999999998 115.19999999999999 L 210.09599999999998 129.6 L 168.19199999999998 129.6 Z"/>
<path d="M 240.62399999999997 131.04 Q 228.95999999999998 131.04 222.76799999999997 124.416 Q 216.576 117.792 216.576 105.696 L 216.576 52.70399999999999 Q 216.576 40.608000000000004 222.76799999999997 33.983999999999995 Q 228.95999999999998 27.36 240.62399999999997 27.36 Q 252.28799999999998 27.36 258.47999999999996 33.983999999999995 Q 264.67199999999997 40.608000000000004 264.67199999999997 52.70399999999999 L 264.67199999999997 105.696 Q 264.67199999999997 117.792 258.47999999999996 124.416 Q 252.28799999999998 131.04 240.62399999999997 131.04 Z M 240.62399999999997 116.64 Q 248.832 116.64 248.832 106.704 L 248.832 51.696 Q 248.832 41.760000000000005 240.62399999999997 41.760000000000005 Q 232.416 41.760000000000005 232.416 51.696 L 232.416 106.704 Q 232.416 116.64 240.62399999999997 116.64 Z"/>
</svg>