<?xml version="1.0" encoding="UTF-8"?>
<svg xmlns="http://www.w3.org/2000/svg" 
     viewBox="-7.2 6.4799999999999995 149.112 66.24" 
     width="134.712" height="51.839999999999996">
  <path d="M 2.952 14.399999999999999 L 10.872 14.399999999999999 L 10.872 34.92 L 19.368 34.92 L 19.368 14.399999999999999 L 27.287999999999997 14.399999999999999 L 27.287999999999997 64.8 L 19.368 64.8 L 19.368 42.12 L 10.872 42.12 L 10.872 64.8 L 2.952 64.8 Z"/>
<path d="M 33.192 14.399999999999999 L 54.792 14.399999999999999 L 54.792 21.6 L 41.111999999999995 21.6 L 41.111999999999995 34.92 L 51.983999999999995 34.92 L 51.983999999999995 42.12 L 41.111999999999995 42.12 L 41.111999999999995 57.599999999999994 L 54.792 57.599999999999994 L 54.792 64.8 L 33.192 64.8 Z"/>
<path d="M 59.327999999999996 14.399999999999999 L 67.24799999999999 14.399999999999999 L 67.24799999999999 57.599999999999994 L 80.28 57.599999999999994 L 80.28 64.8 L 59.327999999999996 64.8 Z"/>
<path d="M 84.09599999999999 14.399999999999999 L 92.01599999999999 14.399999999999999 L 92.01599999999999 57.599999999999994 L 105.04799999999999 57.599999999999994 L 105.04799999999999 64.8 L 84.09599999999999 64.8 Z"/>
<path d="M 120.31199999999998 65.52 Q 114.47999999999999 65.52 111.38399999999999 62.208 Q 108.288 58.896 108.288 52.848 L 108.288 26.351999999999997 Q 108.288 20.304000000000002 111.38399999999999 16.991999999999997 Q 114.47999999999999 13.68 120.31199999999998 13.68 Q 126.14399999999999 13.68 129.23999999999998 16.991999999999997 Q 132.33599999999998 20.304000000000002 132.33599999999998 26.351999999999997 L 132.33599999999998 52.848 Q 132.33599999999998 58.896 129.23999999999998 62.208 Q 126.14399999999999 65.52 120.31199999999998 65.52 Z M 120.31199999999998 58.32 Q 124.416 58.32 124.416 53.352 L 124.416 25.848 Q 124.416 20.880000000000003 120.31199999999998 20.880000000000003 Q 116.208 20.880000000000003 116.208 25.848 L 116.208 53.352 Q 116.208 58.32 120.31199999999998 58.32 Z"/>
</svg>