<?xml version="1.0" encoding="UTF-8"?>
<svg xmlns="http://www.w3.org/2000/svg" 
     viewBox="-3.6 3.2399999999999998 74.556 33.12" 
     width="67.356" height="25.919999999999998">
  <path d="M 1.476 7.199999999999999 L 5.436 7.199999999999999 L 5.436 17.46 L 9.684 17.46 L 9.684 7.199999999999999 L 13.643999999999998 7.199999999999999 L 13.643999999999998 32.4 L 9.684 32.4 L 9.684 21.06 L 5.436 21.06 L 5.436 32.4 L 1.476 32.4 Z"/>
<path d="M 16.596 7.199999999999999 L 27.396 7.199999999999999 L 27.396 10.8 L 20.555999999999997 10.8 L 20.555999999999997 17.46 L 25.991999999999997 17.46 L 25.991999999999997 21.06 L 20.555999999999997 21.06 L 20.555999999999997 28.799999999999997 L 27.396 28.799999999999997 L 27.396 32.4 L 16.596 32.4 Z"/>
<path d="M 29.663999999999998 7.199999999999999 L 33.623999999999995 7.199999999999999 L 33.623999999999995 28.799999999999997 L 40.14 28.799999999999997 L 40.14 32.4 L 29.663999999999998 32.4 Z"/>
<path d="M 42.047999999999995 7.199999999999999 L 46.007999999999996 7.199999999999999 L 46.007999999999996 28.799999999999997 L 52.523999999999994 28.799999999999997 L 52.523999999999994 32.4 L 42.047999999999995 32.4 Z"/>
<path d="M 60.15599999999999 32.76 Q 57.239999999999995 32.76 55.69199999999999 31.104 Q 54.144 29.448 54.144 26.424 L 54.144 13.175999999999998 Q 54.144 10.152000000000001 55.69199999999999 8.495999999999999 Q 57.239999999999995 6.84 60.15599999999999 6.84 Q 63.071999999999996 6.84 64.61999999999999 8.495999999999999 Q 66.16799999999999 10.152000000000001 66.16799999999999 13.175999999999998 L 66.16799999999999 26.424 Q 66.16799999999999 29.448 64.61999999999999 31.104 Q 63.071999999999996 32.76 60.15599999999999 32.76 Z M 60.15599999999999 29.16 Q 62.208 29.16 62.208 26.676 L 62.208 12.924 Q 62.208 10.440000000000001 60.15599999999999 10.440000000000001 Q 58.104 10.440000000000001 58.104 12.924 L 58.104 26.676 Q 58.104 29.16 60.15599999999999 29.16 Z"/>
</svg>