<?xml version="1.0" encoding="UTF-8"?>
<svg xmlns="http://www.w3.org/2000/svg" 
     viewBox="-7.2 6.4799999999999995 298.008 66.24" 
     width="283.608" height="51.839999999999996">
  <path d="M 9.144 21.6 L 0.8639999999999999 21.6 L 0.8639999999999999 14.399999999999999 L 25.343999999999998 14.399999999999999 L 25.343999999999998 21.6 L 17.064 21.6 L 17.064 64.8 L 9.144 64.8 Z"/>
<path d="M 36.431999999999995 43.343999999999994 L 26.855999999999998 14.399999999999999 L 35.28 14.399999999999999 L 40.68 32.903999999999996 L 40.824 32.903999999999996 L 46.224 14.399999999999999 L 53.928 14.399999999999999 L 44.352 43.343999999999994 L 44.352 64.8 L 36.431999999999995 64.8 Z"/>
<path d="M 57.52799999999999 14.399999999999999 L 69.192 14.399999999999999 Q 75.09599999999999 14.399999999999999 78.04799999999999 17.567999999999998 Q 81 20.735999999999997 81 26.856 L 81 31.823999999999998 Q 81 37.944 78.04799999999999 41.111999999999995 Q 75.09599999999999 44.28 69.192 44.28 L 65.448 44.28 L 65.448 64.8 L 57.52799999999999 64.8 Z M 69.192 37.08 Q 71.136 37.08 72.10799999999999 36 Q 73.07999999999998 34.92 73.07999999999998 32.328 L 73.07999999999998 26.351999999999997 Q 73.07999999999998 23.759999999999998 72.10799999999999 22.68 Q 71.136 21.6 69.192 21.6 L 65.448 21.6 L 65.448 37.08 Z"/>
<path d="M 96.768 65.52 Q 90.93599999999999 65.52 87.83999999999999 62.208 Q 84.744 58.896 84.744 52.848 L 84.744 26.351999999999997 Q 84.744 20.304000000000002 87.83999999999999 16.991999999999997 Q 90.93599999999999 13.68 96.768 13.68 Q 102.6 13.68 105.696 16.991999999999997 Q 108.792 20.304000000000002 108.792 26.351999999999997 L 108.792 52.848 Q 108.792 58.896 105.696 62.208 Q 102.6 65.52 96.768 65.52 Z M 96.768 58.32 Q 100.87199999999999 58.32 100.87199999999999 53.352 L 100.87199999999999 25.848 Q 100.87199999999999 20.880000000000003 96.768 20.880000000000003 Q 92.66399999999999 20.880000000000003 92.66399999999999 25.848 L 92.66399999999999 53.352 Q 92.66399999999999 58.32 96.768 58.32 Z"/>
<path d="M 125.35199999999999 65.52 Q 119.59199999999998 65.52 116.568 62.244 Q 113.544 58.967999999999996 113.544 52.848 L 113.544 26.351999999999997 Q 113.544 20.232 116.568 16.956000000000003 Q 119.59199999999998 13.68 125.35199999999999 13.68 Q 131.112 13.68 134.136 16.956000000000003 Q 137.16 20.232 137.16 26.351999999999997 L 137.16 30.671999999999997 L 129.672 30.671999999999997 L 129.672 25.848 Q 129.672 20.880000000000003 125.56799999999998 20.880000000000003 Q 121.464 20.880000000000003 121.464 25.848 L 121.464 53.424 Q 121.464 58.32 125.56799999999998 58.32 Q 129.672 58.32 129.672 53.424 L 129.672 43.56 L 125.71199999999999 43.56 L 125.71199999999999 36.36 L 137.16 36.36 L 137.16 52.848 Q 137.16 58.967999999999996 134.136 62.244 Q 131.112 65.52 125.35199999999999 65.52 Z"/>
<path d="M 142.272 14.399999999999999 L 154.00799999999998 14.399999999999999 Q 160.128 14.399999999999999 162.93599999999998 17.244 Q 165.744 20.088 165.744 25.991999999999997 L 165.744 29.088 Q 165.744 36.936 160.56 39.024 L 160.56 39.168 Q 163.44 40.032 164.628 42.696 Q 165.816 45.36 165.816 49.824 L 165.816 58.68 Q 165.816 60.839999999999996 165.95999999999998 62.172 Q 166.10399999999998 63.504 166.68 64.8 L 158.61599999999999 64.8 Q 158.184 63.576 158.04 62.495999999999995 Q 157.896 61.416 157.896 58.608 L 157.896 49.391999999999996 Q 157.896 45.936 156.78 44.568 Q 155.664 43.2 152.928 43.2 L 150.192 43.2 L 150.192 64.8 L 142.272 64.8 Z M 153.072 36 Q 155.44799999999998 36 156.636 34.775999999999996 Q 157.82399999999998 33.552 157.82399999999998 30.671999999999997 L 157.82399999999998 26.784 Q 157.82399999999998 24.048000000000002 156.852 22.823999999999998 Q 155.88 21.6 153.792 21.6 L 150.192 21.6 L 150.192 36 Z"/>
<path d="M 177.408 14.399999999999999 L 188.13599999999997 14.399999999999999 L 196.344 64.8 L 188.42399999999998 64.8 L 186.98399999999998 54.792 L 186.98399999999998 54.936 L 177.98399999999998 54.936 L 176.54399999999998 64.8 L 169.2 64.8 Z M 186.04799999999997 48.096000000000004 L 182.51999999999998 23.183999999999997 L 182.37599999999998 23.183999999999997 L 178.92 48.096000000000004 Z"/>
<path d="M 200.15999999999997 14.399999999999999 L 211.82399999999996 14.399999999999999 Q 217.72799999999998 14.399999999999999 220.67999999999998 17.567999999999998 Q 223.63199999999998 20.735999999999997 223.63199999999998 26.856 L 223.63199999999998 31.823999999999998 Q 223.63199999999998 37.944 220.67999999999998 41.111999999999995 Q 217.72799999999998 44.28 211.82399999999996 44.28 L 208.07999999999998 44.28 L 208.07999999999998 64.8 L 200.15999999999997 64.8 Z M 211.82399999999996 37.08 Q 213.76799999999997 37.08 214.73999999999998 36 Q 215.71199999999996 34.92 215.71199999999996 32.328 L 215.71199999999996 26.351999999999997 Q 215.71199999999996 23.759999999999998 214.73999999999998 22.68 Q 213.76799999999997 21.6 211.82399999999996 21.6 L 208.07999999999998 21.6 L 208.07999999999998 37.08 Z"/>
<path d="M 227.95199999999997 14.399999999999999 L 235.87199999999996 14.399999999999999 L 235.87199999999996 34.92 L 244.36799999999997 34.92 L 244.36799999999997 14.399999999999999 L 252.28799999999995 14.399999999999999 L 252.28799999999995 64.8 L 244.36799999999997 64.8 L 244.36799999999997 42.12 L 235.87199999999996 42.12 L 235.87199999999996 64.8 L 227.95199999999997 64.8 Z"/>
<path d="M 265.464 43.343999999999994 L 255.88799999999998 14.399999999999999 L 264.31199999999995 14.399999999999999 L 269.712 32.903999999999996 L 269.856 32.903999999999996 L 275.256 14.399999999999999 L 282.96 14.399999999999999 L 273.38399999999996 43.343999999999994 L 273.38399999999996 64.8 L 265.464 64.8 Z"/>
</svg>