<?xml version="1.0" encoding="UTF-8"?>
<svg xmlns="http://www.w3.org/2000/svg" 
     viewBox="1.3599999999999994 -129.2 116.24000000000001 139.2" 
     width="200" height="200">
  <path d="M 50 0 L 20.56 0 L 20.56 -15.6 L 48.96 -15.6 Q 62.72 -15.6 71.76 -20.8 Q 80.8 -26 85.28 -35.92 Q 89.76 -45.84 89.76 -59.76 Q 89.76 -73.60000000000001 85.32000000000001 -83.4 Q 80.88 -93.2 72.08 -98.4 Q 63.28 -103.60000000000001 50 -103.60000000000001 L 20 -103.60000000000001 L 20 -119.2 L 51.2 -119.2 Q 68.72 -119.2 81.36 -112.04 Q 94 -104.88 100.8 -91.56 Q 107.60000000000001 -78.24 107.60000000000001 -59.76 Q 107.60000000000001 -41.2 100.76 -27.8 Q 93.92 -14.4 81.08 -7.2 Q 68.24 0 50 0 Z M 29.28 -119.2 L 29.28 0 L 11.36 0 L 11.36 -119.2 Z" fill="black" stroke="none"/>
</svg>