<?xml version="1.0" encoding="UTF-8"?>
<svg xmlns="http://www.w3.org/2000/svg" 
     viewBox="-5.52 -99.28 104.24 113.04" 
     width="200" height="200">
  <path d="M 46.64 1.92 Q 34.480000000000004 1.92 25.28 -3.72 Q 16.080000000000002 -9.36 11 -19.400000000000002 Q 5.92 -29.44 5.92 -42.56 Q 5.92 -55.84 11 -65.92 Q 16.080000000000002 -76 25.28 -81.68 Q 34.480000000000004 -87.36 46.64 -87.36 Q 58.88 -87.36 68.04 -81.68 Q 77.2 -76 82.28 -65.92 Q 87.36 -55.84 87.36 -42.56 Q 87.36 -29.44 82.28 -19.400000000000002 Q 77.2 -9.36 68.04 -3.72 Q 58.88 1.92 46.64 1.92 Z M 46.64 -12.72 Q 54.08 -12.72 59.32 -16.48 Q 64.56 -20.240000000000002 67.32000000000001 -27 Q 70.08 -33.76 70.08 -42.56 Q 70.08 -51.52 67.32000000000001 -58.28 Q 64.56 -65.04 59.32 -68.84 Q 54.08 -72.64 46.64 -72.64 Q 39.28 -72.64 34 -68.88 Q 28.72 -65.12 25.96 -58.36 Q 23.2 -51.6 23.2 -42.56 Q 23.2 -33.68 25.96 -26.96 Q 28.72 -20.240000000000002 33.96 -16.48 Q 39.2 -12.72 46.64 -12.72 Z M 13.040000000000001 3.7600000000000002 L 4.48 -3.7600000000000002 L 80.24 -89.28 L 88.72 -81.84 Z" fill="black" stroke="none"/>
</svg>